<svg id="Capa_1" data-name="Capa 1" xmlns="http://www.w3.org/2000/svg" viewBox="0 0 23.87 23.54"><defs><style>.cls-1{fill:#fff;fill-rule:evenodd;}</style></defs><path class="cls-1" d="M20.84,15a26,26,0,0,1-4.66-2.26l-2.25,7.12-.31,1-1-2.85c2.32-3.23-.17-3.39-.61-3.39h0c-.43,0-2.92.16-.6,3.39l-1,2.85-.31-1L7.81,12.74A26,26,0,0,1,3.15,15c-3.22,1.17-3,3.81-3.08,8.77H23.93c-.07-5,.12-7.6-3.09-8.77Z" transform="translate(-0.07 -0.23)"/><path class="cls-1" d="M16.67,1.93H15.12V1.15c0-.86-.75-.92-1.61-.92H10.39c-.86,0-1.51.06-1.51.92v.78H7.33A1.56,1.56,0,0,0,5.77,3.49v7a1.56,1.56,0,0,0,1.56,1.56h9.34a1.56,1.56,0,0,0,1.56-1.56v-7a1.56,1.56,0,0,0-1.56-1.56ZM8.45,1.51A.5.5,0,0,0,8,1H7.44a.5.5,0,0,0-.5.5V1.7H8.45V1.51Zm8.22,2.76a.78.78,0,0,1,0-1.56.78.78,0,0,1,0,1.56ZM12,3a3.56,3.56,0,0,1,1.34.27h0a3.63,3.63,0,0,1,1.13.76h0a3.63,3.63,0,0,1,.76,1.13h0a3.46,3.46,0,0,1,0,2.68h0A3.63,3.63,0,0,1,14.47,9h0a3.63,3.63,0,0,1-1.13.76h0a3.46,3.46,0,0,1-2.68,0h0A3.51,3.51,0,0,1,9.53,9h0a3.63,3.63,0,0,1-.76-1.13h0a3.46,3.46,0,0,1,0-2.68h0a3.63,3.63,0,0,1,.76-1.13h0a3.51,3.51,0,0,1,1.13-.76h0A3.56,3.56,0,0,1,12,3Zm1.67,1.83a2.35,2.35,0,0,0-.77-.51,2.34,2.34,0,0,0-1.8,0A2.32,2.32,0,0,0,9.82,5.62a2.34,2.34,0,0,0,0,1.8A2.32,2.32,0,0,0,11.1,8.7a2.34,2.34,0,0,0,1.8,0,2.32,2.32,0,0,0,1.28-1.28,2.34,2.34,0,0,0,0-1.8,2.35,2.35,0,0,0-.51-.77Z" transform="translate(-0.07 -0.23)"/></svg>